<svg xmlns="http://www.w3.org/2000/svg" xmlns:xlink="http://www.w3.org/1999/xlink" width="500" zoomAndPan="magnify" viewBox="0 0 375 374.999991" height="500" preserveAspectRatio="xMidYMid meet" version="1.0"><defs><g/></defs><g fill="#000000" fill-opacity="1"><g transform="translate(69.126511, 196.86118)"><g><path d="M 0.816406 0 L 4.324219 0 L 9.140625 -14.855469 L 34.523438 -14.855469 L 39.339844 0 L 42.851562 0 L 24.078125 -57.214844 L 19.589844 -57.214844 Z M 10.121094 -18.039062 L 21.792969 -53.949219 L 21.957031 -53.949219 L 33.546875 -18.039062 Z M 10.121094 -18.039062 "/></g></g></g><g fill="#000000" fill-opacity="1"><g transform="translate(112.789868, 196.86118)"><g><path d="M 5.796875 -49.707031 C 7.425781 -49.707031 8.652344 -50.929688 8.652344 -52.5625 C 8.652344 -54.277344 7.425781 -55.417969 5.796875 -55.417969 C 4 -55.417969 2.855469 -54.277344 2.855469 -52.5625 C 2.855469 -50.847656 4.082031 -49.707031 5.796875 -49.707031 Z M -1.957031 18.363281 C 3.753906 18.363281 7.425781 14.773438 7.425781 9.222656 L 7.425781 -40.890625 L 4.164062 -40.890625 L 4.164062 9.140625 C 4.164062 12.894531 1.714844 15.261719 -2.121094 15.261719 C -3.429688 15.261719 -4.980469 15.019531 -6.285156 14.445312 L -6.691406 17.464844 C -5.304688 18.039062 -3.507812 18.363281 -1.957031 18.363281 Z M -1.957031 18.363281 "/></g></g></g><g fill="#000000" fill-opacity="1"><g transform="translate(124.705483, 196.86118)"><g><path d="M 6.121094 -49.707031 C 7.835938 -49.707031 9.058594 -50.929688 9.058594 -52.5625 C 9.058594 -54.195312 7.835938 -55.417969 6.121094 -55.417969 C 4.40625 -55.417969 3.265625 -54.195312 3.265625 -52.5625 C 3.265625 -50.929688 4.40625 -49.707031 6.121094 -49.707031 Z M 4.488281 0 L 7.753906 0 L 7.753906 -40.890625 L 4.488281 -40.890625 Z M 4.488281 0 "/></g></g></g><g fill="#000000" fill-opacity="1"><g transform="translate(137.029165, 196.86118)"><g><path d="M 18.28125 1.222656 C 23.667969 1.222656 28.160156 -2.695312 28.648438 -8.160156 L 25.628906 -9.304688 C 25.300781 -4.816406 22.28125 -1.796875 18.445312 -1.796875 C 14.285156 -1.796875 11.671875 -5.140625 11.671875 -10.121094 L 11.671875 -37.871094 L 27.179688 -37.871094 L 27.179688 -40.890625 L 11.671875 -40.890625 L 11.671875 -54.195312 L 8.40625 -53.214844 L 8.40625 -40.890625 L 0 -40.890625 L 0 -37.871094 L 8.488281 -37.871094 L 8.488281 -9.875 C 8.488281 -3.265625 12.324219 1.222656 18.28125 1.222656 Z M 18.28125 1.222656 "/></g></g></g><path stroke-linecap="butt" transform="matrix(0.749635, 0.000000000000000066, -0.000000000000000066, 0.75, 79.180312, 180.760008)" fill="none" stroke-linejoin="miter" d="M -0.000833206 0.00228083 L 321.16065 0.00228083 " stroke="#000000" stroke-width="1" stroke-opacity="1" stroke-miterlimit="4"/><g fill="#737373" fill-opacity="1"><g transform="translate(170.050774, 197.164045)"><g><path d="M 4.894531 0 L 8.242188 0 L 8.242188 -23.992188 L 13.464844 -31.660156 L 27.90625 0 L 31.660156 0 L 15.667969 -34.761719 L 31.089844 -57.203125 L 27.007812 -57.203125 L 8.324219 -29.785156 L 8.242188 -29.785156 L 8.242188 -57.203125 L 4.894531 -57.203125 Z M 4.894531 0 "/></g></g></g><g fill="#737373" fill-opacity="1"><g transform="translate(202.526632, 197.164045)"><g><path d="M 12.894531 0.816406 C 17.136719 0.816406 20.644531 -1.0625 22.277344 -4.488281 L 22.359375 -4.488281 L 22.523438 0 L 25.621094 0 L 25.621094 -40.882812 L 22.359375 -40.882812 L 22.359375 -12.078125 C 22.359375 -5.875 19.011719 -2.203125 13.382812 -2.203125 C 9.300781 -2.203125 6.9375 -4.8125 6.9375 -9.382812 L 6.9375 -40.882812 L 3.671875 -40.882812 L 3.671875 -9.300781 C 3.671875 -2.9375 7.097656 0.816406 12.894531 0.816406 Z M 12.894531 0.816406 "/></g></g></g><g fill="#737373" fill-opacity="1"><g transform="translate(232.228169, 197.164045)"><g><path d="M 4.078125 0 L 7.34375 0 L 7.34375 -27.824219 C 7.34375 -34.679688 10.363281 -38.597656 15.503906 -38.597656 C 19.421875 -38.597656 21.707031 -35.902344 21.707031 -31.253906 L 21.707031 0 L 24.96875 0 L 24.96875 -27.824219 C 24.96875 -34.679688 28.070312 -38.597656 33.128906 -38.597656 C 37.128906 -38.597656 39.414062 -35.902344 39.414062 -31.253906 L 39.332031 0 L 42.59375 0 L 42.675781 -31.253906 C 42.675781 -37.863281 39.414062 -41.777344 33.863281 -41.777344 C 29.621094 -41.777344 26.113281 -39.496094 24.480469 -35.660156 L 24.398438 -35.660156 C 23.257812 -39.496094 20.15625 -41.777344 16.15625 -41.777344 C 12.320312 -41.777344 8.976562 -39.738281 7.34375 -36.3125 L 7.261719 -36.3125 L 7.179688 -40.882812 L 4.078125 -40.882812 Z M 4.078125 0 "/></g></g></g><g fill="#737373" fill-opacity="1"><g transform="translate(278.575616, 197.164045)"><g><path d="M 12.730469 0.816406 C 17.625 0.816406 21.460938 -1.875 23.582031 -6.527344 L 23.664062 -6.527344 L 23.746094 -5.546875 C 23.828125 -1.714844 25.867188 0.816406 29.050781 0.816406 C 30.84375 0.816406 33.046875 0 34.597656 -2.855469 L 32.558594 -5.058594 C 31.578125 -3.101562 30.4375 -2.285156 29.292969 -2.285156 C 27.824219 -2.285156 26.929688 -3.589844 26.929688 -6.121094 L 26.929688 -26.519531 C 26.929688 -35.984375 22.929688 -41.777344 15.503906 -41.777344 C 8.566406 -41.777344 3.589844 -36.476562 3.101562 -27.988281 L 6.203125 -26.847656 C 6.527344 -34.109375 9.957031 -38.597656 15.503906 -38.597656 C 20.808594 -38.597656 23.746094 -34.191406 23.746094 -26.683594 C 23.746094 -25.378906 23.09375 -24.480469 21.867188 -24.316406 L 15.667969 -23.175781 C 5.546875 -21.460938 1.632812 -16.484375 1.632812 -10.445312 C 1.632812 -3.753906 6.28125 0.816406 12.730469 0.816406 Z M 13.21875 -2.285156 C 8.324219 -2.285156 4.894531 -5.710938 4.894531 -10.609375 C 4.894531 -14.933594 7.914062 -18.6875 16.402344 -20.320312 L 23.664062 -21.460938 L 23.664062 -17.136719 C 23.664062 -8.160156 19.339844 -2.285156 13.21875 -2.285156 Z M 13.21875 -2.285156 "/></g></g></g><g fill="#737373" fill-opacity="1"><g transform="translate(313.173002, 197.164045)"><g><path d="M 15.015625 -41.777344 C 11.503906 -41.777344 8.648438 -39.25 7.179688 -34.925781 L 7.097656 -34.925781 L 7.097656 -40.882812 L 4.078125 -40.882812 L 4.078125 0 L 7.34375 0 L 7.34375 -22.195312 C 7.34375 -32.230469 10.117188 -38.679688 14.441406 -38.679688 C 17.707031 -38.679688 19.746094 -35.414062 19.746094 -27.089844 L 22.683594 -28.152344 C 22.683594 -37.699219 19.746094 -41.777344 15.015625 -41.777344 Z M 15.015625 -41.777344 "/></g></g></g></svg>