<svg xmlns="http://www.w3.org/2000/svg" xmlns:xlink="http://www.w3.org/1999/xlink" width="300" zoomAndPan="magnify" viewBox="0 0 224.87999 149.999998" height="200" preserveAspectRatio="xMidYMid meet" version="1.0"><defs><g/></defs><g fill="#000000" fill-opacity="1"><g transform="translate(65.115851, 78.742478)"><g><path d="M 0.328125 0 L 1.730469 0 L 3.65625 -5.9375 L 13.800781 -5.9375 L 15.726562 0 L 17.132812 0 L 9.625 -22.875 L 7.832031 -22.875 Z M 4.046875 -7.210938 L 8.710938 -21.570312 L 8.777344 -21.570312 L 13.410156 -7.210938 Z M 4.046875 -7.210938 "/></g></g></g><g fill="#000000" fill-opacity="1"><g transform="translate(82.571878, 78.742478)"><g><path d="M 2.316406 -19.871094 C 2.96875 -19.871094 3.457031 -20.363281 3.457031 -21.015625 C 3.457031 -21.699219 2.96875 -22.15625 2.316406 -22.15625 C 1.597656 -22.15625 1.140625 -21.699219 1.140625 -21.015625 C 1.140625 -20.328125 1.632812 -19.871094 2.316406 -19.871094 Z M -0.78125 7.34375 C 1.5 7.34375 2.96875 5.90625 2.96875 3.6875 L 2.96875 -16.347656 L 1.664062 -16.347656 L 1.664062 3.65625 C 1.664062 5.15625 0.683594 6.101562 -0.847656 6.101562 C -1.371094 6.101562 -1.992188 6.003906 -2.511719 5.777344 L -2.675781 6.984375 C -2.121094 7.210938 -1.402344 7.34375 -0.78125 7.34375 Z M -0.78125 7.34375 "/></g></g></g><g fill="#000000" fill-opacity="1"><g transform="translate(87.335582, 78.742478)"><g><path d="M 2.449219 -19.871094 C 3.132812 -19.871094 3.621094 -20.363281 3.621094 -21.015625 C 3.621094 -21.667969 3.132812 -22.15625 2.449219 -22.15625 C 1.761719 -22.15625 1.304688 -21.667969 1.304688 -21.015625 C 1.304688 -20.363281 1.761719 -19.871094 2.449219 -19.871094 Z M 1.792969 0 L 3.101562 0 L 3.101562 -16.347656 L 1.792969 -16.347656 Z M 1.792969 0 "/></g></g></g><g fill="#000000" fill-opacity="1"><g transform="translate(92.262425, 78.742478)"><g><path d="M 7.308594 0.488281 C 9.460938 0.488281 11.257812 -1.078125 11.453125 -3.261719 L 10.246094 -3.71875 C 10.117188 -1.925781 8.90625 -0.71875 7.375 -0.71875 C 5.710938 -0.71875 4.667969 -2.054688 4.667969 -4.046875 L 4.667969 -15.140625 L 10.867188 -15.140625 L 10.867188 -16.347656 L 4.667969 -16.347656 L 4.667969 -21.667969 L 3.359375 -21.273438 L 3.359375 -16.347656 L 0 -16.347656 L 0 -15.140625 L 3.394531 -15.140625 L 3.394531 -3.949219 C 3.394531 -1.304688 4.925781 0.488281 7.308594 0.488281 Z M 7.308594 0.488281 "/></g></g></g><path stroke-linecap="butt" transform="matrix(0.746956, 0.000000000000000066, -0.000000000000000066, 0.7496, 69.135228, 72.530321)" fill="none" stroke-linejoin="miter" d="M 0.00199598 0.00123892 L 128.466148 0.00123892 " stroke="#000000" stroke-width="1" stroke-opacity="1" stroke-miterlimit="4"/><g fill="#737373" fill-opacity="1"><g transform="translate(105.464033, 78.86356)"><g><path d="M 1.957031 0 L 3.292969 0 L 3.292969 -9.589844 L 5.382812 -12.65625 L 11.15625 0 L 12.65625 0 L 6.261719 -13.898438 L 12.429688 -22.867188 L 10.796875 -22.867188 L 3.328125 -11.90625 L 3.292969 -11.90625 L 3.292969 -22.867188 L 1.957031 -22.867188 Z M 1.957031 0 "/></g></g></g><g fill="#737373" fill-opacity="1"><g transform="translate(118.447448, 78.86356)"><g><path d="M 5.15625 0.328125 C 6.851562 0.328125 8.253906 -0.425781 8.90625 -1.792969 L 8.9375 -1.792969 L 9.003906 0 L 10.242188 0 L 10.242188 -16.34375 L 8.9375 -16.34375 L 8.9375 -4.828125 C 8.9375 -2.347656 7.601562 -0.878906 5.351562 -0.878906 C 3.71875 -0.878906 2.773438 -1.925781 2.773438 -3.75 L 2.773438 -16.34375 L 1.46875 -16.34375 L 1.46875 -3.71875 C 1.46875 -1.175781 2.839844 0.328125 5.15625 0.328125 Z M 5.15625 0.328125 "/></g></g></g><g fill="#737373" fill-opacity="1"><g transform="translate(130.321726, 78.86356)"><g><path d="M 1.632812 0 L 2.9375 0 L 2.9375 -11.125 C 2.9375 -13.863281 4.144531 -15.429688 6.199219 -15.429688 C 7.765625 -15.429688 8.675781 -14.355469 8.675781 -12.496094 L 8.675781 0 L 9.984375 0 L 9.984375 -11.125 C 9.984375 -13.863281 11.222656 -15.429688 13.246094 -15.429688 C 14.84375 -15.429688 15.757812 -14.355469 15.757812 -12.496094 L 15.722656 0 L 17.027344 0 L 17.0625 -12.496094 C 17.0625 -15.136719 15.757812 -16.703125 13.539062 -16.703125 C 11.84375 -16.703125 10.4375 -15.789062 9.785156 -14.257812 L 9.753906 -14.257812 C 9.296875 -15.789062 8.058594 -16.703125 6.460938 -16.703125 C 4.925781 -16.703125 3.589844 -15.886719 2.9375 -14.515625 L 2.902344 -14.515625 L 2.871094 -16.34375 L 1.632812 -16.34375 Z M 1.632812 0 "/></g></g></g><g fill="#737373" fill-opacity="1"><g transform="translate(148.850817, 78.86356)"><g><path d="M 5.089844 0.328125 C 7.046875 0.328125 8.578125 -0.75 9.429688 -2.609375 L 9.460938 -2.609375 L 9.492188 -2.21875 C 9.527344 -0.683594 10.339844 0.328125 11.613281 0.328125 C 12.332031 0.328125 13.210938 0 13.832031 -1.140625 L 13.015625 -2.023438 C 12.625 -1.238281 12.167969 -0.914062 11.710938 -0.914062 C 11.125 -0.914062 10.765625 -1.433594 10.765625 -2.445312 L 10.765625 -10.601562 C 10.765625 -14.386719 9.167969 -16.703125 6.199219 -16.703125 C 3.425781 -16.703125 1.433594 -14.582031 1.238281 -11.191406 L 2.480469 -10.734375 C 2.609375 -13.636719 3.980469 -15.429688 6.199219 -15.429688 C 8.320312 -15.429688 9.492188 -13.667969 9.492188 -10.667969 C 9.492188 -10.144531 9.230469 -9.785156 8.742188 -9.722656 L 6.261719 -9.265625 C 2.21875 -8.578125 0.652344 -6.589844 0.652344 -4.175781 C 0.652344 -1.5 2.511719 0.328125 5.089844 0.328125 Z M 5.285156 -0.914062 C 3.328125 -0.914062 1.957031 -2.285156 1.957031 -4.242188 C 1.957031 -5.96875 3.164062 -7.46875 6.558594 -8.121094 L 9.460938 -8.578125 L 9.460938 -6.851562 C 9.460938 -3.261719 7.730469 -0.914062 5.285156 -0.914062 Z M 5.285156 -0.914062 "/></g></g></g><g fill="#737373" fill-opacity="1"><g transform="translate(162.682391, 78.86356)"><g><path d="M 6.003906 -16.703125 C 4.601562 -16.703125 3.457031 -15.691406 2.871094 -13.960938 L 2.839844 -13.960938 L 2.839844 -16.34375 L 1.632812 -16.34375 L 1.632812 0 L 2.9375 0 L 2.9375 -8.875 C 2.9375 -12.886719 4.046875 -15.464844 5.773438 -15.464844 C 7.078125 -15.464844 7.894531 -14.160156 7.894531 -10.832031 L 9.070312 -11.253906 C 9.070312 -15.070312 7.894531 -16.703125 6.003906 -16.703125 Z M 6.003906 -16.703125 "/></g></g></g></svg>